<?xml version="1.0" standalone="no"?>
<!DOCTYPE svg PUBLIC "-//W3C//DTD SVG 20010904//EN"
 "http://www.w3.org/TR/2001/REC-SVG-20010904/DTD/svg10.dtd">
<svg version="1.0" xmlns="http://www.w3.org/2000/svg"
 width="440.000000pt" height="440.000000pt" viewBox="0 0 440.000000 440.000000"
 preserveAspectRatio="xMidYMid meet">
<metadata>
Created by potrace 1.10, written by Peter Selinger 2001-2011
</metadata>
<g transform="translate(0.000000,440.000000) scale(0.050000,-0.050000)"
fill="#ffffff" stroke="none">
<path d="M3980 8559 c-1728 -210 -3126 -1586 -3312 -3259 -13 -120 -23 -141
-136 -280 -517 -638 -544 -1635 -64 -2308 465 -652 1286 -885 2042 -580 570
229 887 441 1992 1329 1140 916 1611 1179 2106 1179 1061 -2 1141 -1544 85
-1633 -638 -54 -1045 485 -852 1129 14 46 20 90 13 97 -32 32 -579 -347 -1009
-697 l-145 -119 0 -659 0 -659 544 6 543 5 -5 125 c-6 148 10 155 123 53 199
-180 547 -288 926 -288 265 0 259 8 129 -188 -146 -221 -377 -384 -698 -495
-153 -52 -191 -47 -327 43 -147 98 -408 115 -615 38 -60 -22 -130 -45 -155
-52 -130 -32 -244 -260 -204 -408 106 -395 744 -503 1058 -180 98 101 128 119
251 152 606 161 1032 548 1221 1110 42 125 48 132 180 210 272 160 645 560
775 830 330 686 232 1372 -275 1940 l-105 118 -13 176 c-144 1917 -2122 3503
-4073 3265z m1010 -738 c1095 -253 1945 -1016 2262 -2032 65 -207 74 -197
-154 -157 -742 129 -1509 -211 -2778 -1231 -170 -138 -451 -363 -623 -502
-1052 -844 -1598 -1053 -2083 -794 -607 323 -503 1314 158 1506 660 192 1232
-353 1059 -1012 -40 -153 -16 -164 134 -60 187 131 664 500 841 650 l155 133
-6 614 -5 614 -540 0 -540 0 -10 -138 -10 -139 -97 84 c-271 235 -733 340
-1208 276 l-125 -17 62 177 c405 1149 1318 1898 2528 2075 166 24 805 -6 980
-47z"/>
<path d="M4713 6927 c-18 -19 -17 -1982 2 -1994 8 -5 148 79 310 187 162 109
399 254 527 324 l232 126 -1 666 c-1 366 -7 674 -14 685 -13 21 -1034 27
-1056 6z"/>
<path d="M3810 2699 c-154 -122 -581 -405 -760 -503 l-160 -87 -5 -685 -6
-684 531 0 530 0 0 1020 c0 561 -7 1020 -15 1019 -8 -1 -60 -37 -115 -80z"/>
</g>
</svg>
